<svg width="1280" height="700" viewBox="0 0 1280 700" fill="none" xmlns="http://www.w3.org/2000/svg">
<rect width="1280" height="700" fill="#202020"/>
<rect width="1280" height="74" fill="#202020"/>
<path d="M613.352 35.5C613.002 33.5611 611.45 32.4162 609.548 32.4162C607.129 32.4162 605.375 34.2812 605.375 37.2727C605.375 40.2642 607.129 42.1293 609.548 42.1293C611.45 42.1293 613.002 40.9844 613.352 39.0455H612.208C611.931 40.3565 610.804 41.0582 609.548 41.0582C607.831 41.0582 606.483 39.7287 606.483 37.2727C606.483 34.8168 607.831 33.4872 609.548 33.4872C610.804 33.4872 611.931 34.1889 612.208 35.5H613.352ZM617.935 42.1477C619.856 42.1477 621.149 40.6889 621.149 38.4915C621.149 36.2756 619.856 34.8168 617.935 34.8168C616.015 34.8168 614.722 36.2756 614.722 38.4915C614.722 40.6889 616.015 42.1477 617.935 42.1477ZM617.935 41.169C616.477 41.169 615.812 39.9134 615.812 38.4915C615.812 37.0696 616.477 35.7955 617.935 35.7955C619.394 35.7955 620.059 37.0696 620.059 38.4915C620.059 39.9134 619.394 41.169 617.935 41.169ZM623.332 34.9091H622.076L624.329 38.4545L622.076 42H623.332L625.031 39.2486L626.73 42H627.986L625.696 38.4545L627.986 34.9091H626.73L625.031 37.8082L623.332 34.9091ZM629.54 44.6591H630.63V40.9105H630.722C630.962 41.2983 631.424 42.1477 632.79 42.1477C634.563 42.1477 635.8 40.7259 635.8 38.473C635.8 36.2386 634.563 34.8168 632.772 34.8168C631.387 34.8168 630.962 35.6662 630.722 36.0355H630.593V34.9091H629.54V44.6591ZM630.611 38.4545C630.611 36.8665 631.313 35.7955 632.642 35.7955C634.027 35.7955 634.711 36.9588 634.711 38.4545C634.711 39.9688 634.009 41.169 632.642 41.169C631.331 41.169 630.611 40.0611 630.611 38.4545ZM639.549 42.1662C640.786 42.1662 641.432 41.5014 641.654 41.0398H641.709V42H642.799V37.3281C642.799 35.0753 641.081 34.8168 640.176 34.8168C639.105 34.8168 637.887 35.1861 637.333 36.4787L638.367 36.848C638.607 36.331 639.175 35.777 640.213 35.777C641.215 35.777 641.709 36.3079 641.709 37.2173V37.2543C641.709 37.7805 641.174 37.7344 639.881 37.9006C638.565 38.0714 637.13 38.3622 637.13 39.9872C637.13 41.3722 638.201 42.1662 639.549 42.1662ZM639.715 41.1875C638.847 41.1875 638.219 40.7997 638.219 40.0426C638.219 39.2116 638.976 38.9531 639.826 38.8423C640.287 38.7869 641.525 38.6577 641.709 38.4361V39.4332C641.709 40.3196 641.007 41.1875 639.715 41.1875ZM645.877 34.9091H644.787V42H645.877V38.9716H649.274V42H650.364V34.9091H649.274V37.956H645.877V34.9091ZM655.327 42.1477C656.767 42.1477 657.82 41.4276 658.152 40.3565L657.099 40.0611C656.822 40.7997 656.181 41.169 655.327 41.169C654.048 41.169 653.166 40.3427 653.115 38.8239H658.263V38.3622C658.263 35.7216 656.693 34.8168 655.216 34.8168C653.295 34.8168 652.021 36.331 652.021 38.5099C652.021 40.6889 653.277 42.1477 655.327 42.1477ZM653.115 37.8821C653.189 36.7788 653.969 35.7955 655.216 35.7955C656.398 35.7955 657.155 36.6818 657.155 37.8821H653.115ZM653.831 33.7273C654.256 33.7273 654.57 33.3764 654.57 32.9886C654.57 32.5639 654.256 32.25 653.831 32.25C653.443 32.25 653.092 32.5639 653.092 32.9886C653.092 33.3764 653.443 33.7273 653.831 33.7273ZM656.49 33.7273C656.915 33.7273 657.229 33.3764 657.229 32.9886C657.229 32.5639 656.915 32.25 656.49 32.25C656.102 32.25 655.751 32.5639 655.751 32.9886C655.751 33.3764 656.102 33.7273 656.49 33.7273ZM661.009 34.9091H659.92V42H661.009V38.9716H664.407V42H665.497V34.9091H664.407V37.956H661.009V34.9091ZM668.576 34.9091H667.486V42H668.576V38.9716H671.974V42H673.063V34.9091H671.974V37.956H668.576V34.9091ZM676.142 37.4759V34.9091H675.053V42H678.026C679.688 42 680.593 40.9844 680.593 39.7102C680.593 38.4176 679.688 37.4759 678.026 37.4759H676.142ZM681.719 42H682.809V34.9091H681.719V42ZM676.142 38.4915H678.026C678.889 38.4915 679.503 39.0178 679.503 39.7656C679.503 40.4812 678.889 40.9844 678.026 40.9844H676.142V38.4915ZM687.776 42.1477C689.216 42.1477 690.269 41.4276 690.601 40.3565L689.549 40.0611C689.272 40.7997 688.63 41.169 687.776 41.169C686.497 41.169 685.615 40.3427 685.565 38.8239H690.712V38.3622C690.712 35.7216 689.142 34.8168 687.665 34.8168C685.745 34.8168 684.47 36.331 684.47 38.5099C684.47 40.6889 685.726 42.1477 687.776 42.1477ZM685.565 37.8821C685.638 36.7788 686.419 35.7955 687.665 35.7955C688.847 35.7955 689.604 36.6818 689.604 37.8821H685.565ZM698.906 44.419H699.996V42.1477C701.916 42.1477 703.209 40.6889 703.209 38.4915C703.209 36.2756 701.916 34.8168 699.996 34.8168V32.5455H698.906V34.8168C696.986 34.8168 695.693 36.2756 695.693 38.4915C695.693 40.6889 696.986 42.1477 698.906 42.1477V44.419ZM699.996 41.169V35.7955C701.454 35.7955 702.119 37.0696 702.119 38.4915C702.119 39.9134 701.454 41.169 699.996 41.169ZM698.906 41.169C697.447 41.169 696.783 39.9134 696.783 38.4915C696.783 37.0696 697.447 35.7955 698.906 35.7955V41.169ZM705.964 40.3935V34.9091H704.874V42H706.148L709.546 36.5156V42H710.635V34.9091H709.38L705.964 40.3935ZM712.003 42H712.372C713.942 42 714.394 40.7812 714.496 38.4545L714.607 35.9247H717.21V42H718.3V34.9091H713.573L713.443 38.0483C713.351 40.4304 713.111 40.9844 712.262 40.9844H712.003V42ZM721.388 37.4759V34.9091H720.299V42H723.272C724.934 42 725.839 40.9844 725.839 39.7102C725.839 38.4176 724.934 37.4759 723.272 37.4759H721.388ZM721.388 38.4915H723.272C724.135 38.4915 724.749 39.0178 724.749 39.7656C724.749 40.4812 724.135 40.9844 723.272 40.9844H721.388V38.4915ZM731.375 40.5227L728.938 34.9091H727.497V42H728.587V36.4741L730.932 42H731.818L734.163 36.5756V42H735.253V34.9091H733.849L731.375 40.5227ZM738.337 37.4759V34.9091H737.247V42H740.22C741.882 42 742.787 40.9844 742.787 39.7102C742.787 38.4176 741.882 37.4759 740.22 37.4759H738.337ZM743.913 42H745.003V34.9091H743.913V42ZM738.337 38.4915H740.22C741.083 38.4915 741.697 39.0178 741.697 39.7656C741.697 40.4812 741.083 40.9844 740.22 40.9844H738.337V38.4915Z" fill="white"/>
<path d="M539.079 33.6349C536.923 33.6349 535.363 35.163 535.363 37.4251C535.363 39.6641 536.914 41.1644 539.079 41.1644H539.236V42.3878H540.635V41.1644H540.783C542.943 41.1644 544.494 39.6456 544.494 37.4112C544.494 35.1538 542.943 33.6349 540.783 33.6349H540.635V32.3793H539.236V33.6349H539.079ZM539.079 34.8675H539.236V39.9318H539.079C537.611 39.9318 536.743 38.9854 536.743 37.4251C536.743 35.8232 537.602 34.8675 539.079 34.8675ZM540.635 34.8675H540.787C542.26 34.8675 543.109 35.8278 543.109 37.4112C543.109 38.9808 542.26 39.9318 540.787 39.9318H540.635V34.8675ZM547.51 40.0657V34.9091H546.157V42H547.658L550.769 36.8388V42H552.122V34.9091H550.635L547.51 40.0657ZM553.419 42H553.862C555.409 42 555.977 40.8551 556.087 38.5099L556.198 36.1001H558.516V42H559.868V34.9091H554.919L554.795 38.0483C554.707 40.2365 554.458 40.8043 553.668 40.8043H553.415L553.419 42ZM563.062 37.3466V34.9091H561.709V42H564.807C566.543 42 567.512 40.9936 567.512 39.6594C567.512 38.2976 566.543 37.3466 564.807 37.3466H563.062ZM563.062 38.5376H564.807C565.601 38.5376 566.169 39.0178 566.169 39.701C566.169 40.3473 565.601 40.8089 564.807 40.8089H563.062V38.5376ZM573.039 40.2919L570.796 34.9091H569.06V42H570.412V36.8434L572.527 42H573.552L575.703 36.8619V42H577.046V34.9091H575.329L573.039 40.2919ZM580.239 37.3466V34.9091H578.886V42H581.984C583.719 42 584.689 40.9936 584.689 39.6594C584.689 38.2976 583.719 37.3466 581.984 37.3466H580.239ZM585.695 42H587.076V34.9091H585.695V42ZM580.239 38.5376H581.984C582.778 38.5376 583.345 39.0178 583.345 39.701C583.345 40.3473 582.778 40.8089 581.984 40.8089H580.239V38.5376Z" fill="white"/>
<rect opacity="0.2" x="1111" y="22" width="98" height="30" rx="15" stroke="#AAAAAA" stroke-width="2"/>
<path d="M1142.98 42L1143.91 39.3054H1147.89L1148.82 42H1150.45L1146.79 31.8182H1145.01L1141.35 42H1142.98ZM1144.36 38.0128L1145.86 33.6676H1145.94L1147.44 38.0128H1144.36ZM1151.8 42H1153.29V38.9474H1154.25L1156.55 42H1158.4L1155.41 38.0774L1158.36 34.3636H1156.53L1154 37.5653H1153.29V34.3636H1151.8V42ZM1159.55 42H1161.04V38.9474H1162L1164.31 42H1166.15L1163.16 38.0774L1166.12 34.3636H1164.28L1161.76 37.5653H1161.04V34.3636H1159.55V42ZM1169.53 42.169C1170.79 42.169 1171.5 41.5277 1171.79 40.956H1171.84V42H1173.3V36.929C1173.3 34.7067 1171.55 34.2642 1170.33 34.2642C1168.95 34.2642 1167.68 34.821 1167.18 36.2131L1168.58 36.5312C1168.8 35.9893 1169.35 35.4673 1170.35 35.4673C1171.31 35.4673 1171.81 35.9695 1171.81 36.8345V36.8693C1171.81 37.4112 1171.25 37.4013 1169.88 37.5604C1168.43 37.7294 1166.95 38.1072 1166.95 39.8423C1166.95 41.3438 1168.08 42.169 1169.53 42.169ZM1169.85 40.9759C1169.01 40.9759 1168.4 40.598 1168.4 39.8622C1168.4 39.0668 1169.11 38.7834 1169.97 38.669C1170.45 38.6044 1171.6 38.4751 1171.81 38.2614V39.2457C1171.81 40.1506 1171.09 40.9759 1169.85 40.9759ZM1175.94 44.8636C1177.17 44.8636 1177.95 44.2223 1178.39 43.0192L1181.55 34.3786L1179.94 34.3636L1178.01 40.2898H1177.93L1175.99 34.3636H1174.4L1177.2 42.0994L1177.01 42.6065C1176.63 43.6207 1176.1 43.7053 1175.29 43.4815L1174.93 44.6996C1175.11 44.7791 1175.5 44.8636 1175.94 44.8636ZM1184.4 34.3636H1182.95V42H1184.4V38.8281H1187.71V42H1189.16V34.3636H1187.71V37.5405H1184.4V34.3636ZM1190.2 35.6463H1192.7V42H1194.16V35.6463H1196.65V34.3636H1190.2V35.6463Z" fill="white"/>
<path fill-rule="evenodd" clip-rule="evenodd" d="M1130 34C1130 35.1046 1129.1 36 1128 36C1126.9 36 1126 35.1046 1126 34C1126 32.8954 1126.9 32 1128 32C1129.1 32 1130 32.8954 1130 34ZM1132 34C1132 36.2091 1130.21 38 1128 38C1125.79 38 1124 36.2091 1124 34C1124 31.7909 1125.79 30 1128 30C1130.21 30 1132 31.7909 1132 34ZM1126 39C1123.79 39 1122 40.7909 1122 43V44H1124V43C1124 41.8954 1124.9 41 1126 41H1130C1131.1 41 1132 41.8954 1132 43V44H1134V43C1134 40.7909 1132.21 39 1130 39H1126Z" fill="white"/>
<path fill-rule="evenodd" clip-rule="evenodd" d="M89 56C99.4934 56 108 47.4934 108 37C108 26.5066 99.4934 18 89 18C78.5066 18 70 26.5066 70 37C70 47.4934 78.5066 56 89 56Z" fill="#3DDC84"/>
<path d="M84.8072 39.3303C85.491 39.3303 86.2108 39.6239 87.0026 40.2477C87.9743 41.0183 88.6221 41.3853 88.982 41.3853C89.5219 41.3853 89.7738 41.0917 89.7738 40.5413C89.7738 40.2477 89.6298 39.9908 89.3059 39.7706C89.126 39.6606 88.2262 39.2936 86.5347 38.7064C83.7995 37.7156 82.4319 35.9174 82.4319 33.2385C82.4319 31.2202 83.1517 29.6422 84.5913 28.5046C85.8869 27.5138 87.4344 27 89.3059 27C90.9254 27 92.329 27.4037 93.5167 28.1743C94.7044 28.945 95.3162 29.9725 95.3162 31.2202C95.3162 31.9541 95.1003 32.578 94.6324 33.0917C94.1645 33.6055 93.5887 33.8257 92.8689 33.8257C92.1131 33.8257 91.2853 33.4587 90.3496 32.7248C89.7738 32.2844 89.3419 32.0275 89.054 32.0275C88.5501 32.0275 88.2982 32.2844 88.2982 32.7615C88.2982 33.2385 88.91 33.6789 90.1697 34.0459C91.8972 34.5963 93.1928 35.2569 94.1285 36.0642C95.3882 37.1284 96 38.5963 96 40.5046C96 42.5963 95.3162 44.211 93.9126 45.3853C92.617 46.4862 90.9254 47 88.838 47C86.7506 47 85.0231 46.4495 83.6555 45.3119C82.5758 44.3945 82 43.367 82 42.156C82 41.3486 82.2519 40.6881 82.7918 40.1376C83.3676 39.6239 84.0154 39.3303 84.8072 39.3303Z" fill="white"/>
<path d="M552.75 153.545H539.284V171H541.909V155.795H550.125V171H552.75V153.545ZM556.572 175.909H559.121V168.963H559.274C559.734 169.798 560.672 171.256 563.058 171.256C566.229 171.256 568.53 168.716 568.53 164.48C568.53 160.236 566.195 157.739 563.033 157.739C560.604 157.739 559.726 159.222 559.274 160.031H559.061V157.909H556.572V175.909ZM559.07 164.455C559.07 161.719 560.263 159.903 562.487 159.903C564.797 159.903 565.956 161.855 565.956 164.455C565.956 167.08 564.763 169.082 562.487 169.082C560.297 169.082 559.07 167.207 559.07 164.455ZM573.882 167.429V157.909H571.385V171H574.155L579.899 161.472V171H582.396V157.909H579.652L573.882 167.429ZM585.822 171H592.078C594.942 171 596.621 169.551 596.621 167.472C596.621 165.528 595.129 164.335 593.382 164.131C594.993 163.824 596.058 162.938 596.058 161.403C596.058 159.256 594.2 157.909 591.251 157.909H585.822V171ZM588.217 168.869V165.23H592.078C593.339 165.23 594.098 165.972 594.098 167.19C594.098 168.23 593.339 168.869 592.078 168.869H588.217ZM588.217 163.364V160.065H591.251C592.7 160.065 593.578 160.67 593.578 161.676C593.578 162.724 592.709 163.364 591.277 163.364H588.217ZM605.058 171.264C607.913 171.264 609.933 169.858 610.513 167.727L608.101 167.293C607.641 168.528 606.533 169.159 605.084 169.159C602.902 169.159 601.436 167.744 601.368 165.222H610.675V164.318C610.675 159.588 607.845 157.739 604.879 157.739C601.232 157.739 598.828 160.517 598.828 164.54C598.828 168.605 601.197 171.264 605.058 171.264ZM601.376 163.312C601.479 161.455 602.825 159.844 604.896 159.844C606.874 159.844 608.169 161.31 608.178 163.312H601.376ZM612.347 160.108H616.634V171H619.123V160.108H623.393V157.909H612.347V160.108ZM627.341 168.614H624.886L624.801 169.568C624.605 171.878 624.06 174.205 623.83 175.261H625.636C626.045 174.145 626.949 171.588 627.213 169.543L627.341 168.614ZM637.214 171H643.905C647.962 171 649.794 168.98 649.794 166.304C649.794 163.602 647.902 162.077 646.172 161.983V161.812C647.774 161.403 649.112 160.312 649.112 158.131C649.112 155.548 647.322 153.545 643.607 153.545H637.214V171ZM639.848 168.741V163.151H643.743C645.857 163.151 647.178 164.514 647.178 166.176C647.178 167.642 646.18 168.741 643.649 168.741H639.848ZM639.848 161.097V155.787H643.445C645.533 155.787 646.53 156.886 646.53 158.335C646.53 160.023 645.149 161.097 643.376 161.097H639.848ZM655.21 167.429V157.909H652.713V171H655.483L661.227 161.472V171H663.724V157.909H660.98L655.21 167.429ZM665.527 160.108H669.814V171H672.303V160.108H676.572V157.909H665.527V160.108ZM682.468 171.29C684.633 171.29 685.852 170.19 686.337 169.21H686.44V171H688.928V162.307C688.928 158.497 685.928 157.739 683.849 157.739C681.479 157.739 679.298 158.693 678.445 161.08L680.84 161.625C681.215 160.696 682.17 159.801 683.883 159.801C685.528 159.801 686.371 160.662 686.371 162.145V162.205C686.371 163.134 685.417 163.116 683.065 163.389C680.585 163.679 678.045 164.327 678.045 167.301C678.045 169.875 679.979 171.29 682.468 171.29ZM683.022 169.244C681.582 169.244 680.542 168.597 680.542 167.335C680.542 165.972 681.752 165.486 683.227 165.29C684.053 165.179 686.013 164.957 686.38 164.591V166.278C686.38 167.83 685.144 169.244 683.022 169.244ZM691.291 171H692.109C694.964 171 696.013 168.886 696.217 164.557L696.422 160.108H700.7V171H703.197V157.909H694.061L693.831 163.705C693.669 167.744 693.209 168.793 691.751 168.793H691.283L691.291 171ZM709.093 167.429V157.909H706.596V171H709.366L715.11 161.472V171H717.607V157.909H714.863L709.093 167.429ZM723.531 167.429V157.909H721.033V171H723.803L729.548 161.472V171H732.045V157.909H729.3L723.531 167.429ZM728.21 153.477C728.21 154.338 727.732 155.097 726.539 155.097C725.329 155.097 724.877 154.33 724.877 153.477H722.789C722.789 155.395 724.246 156.716 726.539 156.716C728.849 156.716 730.306 155.395 730.306 153.477H728.21ZM738.684 153.545H735.88L736.102 165.98H738.462L738.684 153.545ZM737.278 171.162C738.207 171.162 738.982 170.403 738.982 169.457C738.982 168.528 738.207 167.761 737.278 167.761C736.34 167.761 735.573 168.528 735.573 169.457C735.573 170.403 736.34 171.162 737.278 171.162Z" fill="white"/>
<path d="M581.244 627H584.868C587.065 627 588.058 625.906 588.058 624.456C588.058 622.993 587.033 622.167 586.096 622.116V622.023C586.964 621.802 587.688 621.211 587.688 620.029C587.688 618.63 586.719 617.545 584.706 617.545H581.244V627ZM582.67 625.777V622.748H584.78C585.925 622.748 586.64 623.487 586.64 624.387C586.64 625.181 586.1 625.777 584.729 625.777H582.67ZM582.67 621.636V618.76H584.618C585.749 618.76 586.29 619.355 586.29 620.14C586.29 621.054 585.542 621.636 584.581 621.636H582.67ZM590.991 622.347V619.909H589.639V627H592.737C594.472 627 595.442 625.994 595.442 624.659C595.442 623.298 594.472 622.347 592.737 622.347H590.991ZM596.448 627H597.828V619.909H596.448V627ZM590.991 623.538H592.737C593.531 623.538 594.098 624.018 594.098 624.701C594.098 625.347 593.531 625.809 592.737 625.809H590.991V623.538ZM601.033 625.066V619.909H599.681V627H601.181L604.293 621.839V627H605.645V619.909H604.159L601.033 625.066ZM603.568 617.509C603.568 617.975 603.309 618.386 602.663 618.386C602.008 618.386 601.763 617.97 601.763 617.509H600.632C600.632 618.547 601.421 619.263 602.663 619.263C603.914 619.263 604.704 618.547 604.704 617.509H603.568ZM606.622 621.1H608.944V627H610.292V621.1H612.605V619.909H606.622V621.1ZM615.417 625.066V619.909H614.065V627H615.565L618.676 621.839V627H620.029V619.909H618.543L615.417 625.066ZM626.678 625.066V619.909H625.325V627H626.826L629.937 621.839V627H631.29V619.909H629.803L626.678 625.066ZM632.726 625.126C632.767 626.363 633.926 627.143 635.5 627.143C637.116 627.143 638.284 626.331 638.284 625.029C638.284 624.105 637.698 623.422 636.876 623.367V623.293C637.619 623.081 638.131 622.582 638.131 621.802C638.131 620.638 637.134 619.817 635.555 619.817C634.041 619.817 632.929 620.625 632.901 621.816H634.295C634.323 621.285 634.872 620.915 635.625 620.915C636.368 620.915 636.802 621.303 636.802 621.88C636.802 622.42 636.414 622.817 635.634 622.817H634.48V623.902H635.634C636.419 623.902 636.922 624.336 636.922 624.978C636.922 625.703 636.28 626.031 635.486 626.031C634.706 626.031 634.18 625.707 634.138 625.126H632.726ZM645.213 627.157C646.386 627.157 647.046 626.561 647.309 626.031H647.364V627H648.712V622.291C648.712 620.228 647.087 619.817 645.961 619.817C644.678 619.817 643.496 620.334 643.034 621.626L644.331 621.922C644.535 621.419 645.052 620.934 645.979 620.934C646.87 620.934 647.328 621.4 647.328 622.203V622.236C647.328 622.739 646.81 622.73 645.536 622.877C644.193 623.034 642.817 623.385 642.817 624.996C642.817 626.391 643.865 627.157 645.213 627.157ZM645.513 626.049C644.733 626.049 644.17 625.698 644.17 625.015C644.17 624.276 644.825 624.013 645.624 623.907C646.072 623.847 647.134 623.727 647.332 623.528V624.442C647.332 625.283 646.663 626.049 645.513 626.049ZM650.551 627H651.931V624.165H652.827L654.964 627H656.677L653.898 623.358L656.645 619.909H654.937L652.596 622.882H651.931V619.909H650.551V627ZM657.749 627H659.13V624.165H660.025L662.163 627H663.875L661.096 623.358L663.843 619.909H662.135L659.794 622.882H659.13V619.909H657.749V627ZM667.011 627.157C668.184 627.157 668.844 626.561 669.107 626.031H669.162V627H670.51V622.291C670.51 620.228 668.885 619.817 667.759 619.817C666.475 619.817 665.294 620.334 664.832 621.626L666.129 621.922C666.332 621.419 666.849 620.934 667.777 620.934C668.668 620.934 669.125 621.4 669.125 622.203V622.236C669.125 622.739 668.608 622.73 667.334 622.877C665.991 623.034 664.615 623.385 664.615 624.996C664.615 626.391 665.663 627.157 667.011 627.157ZM667.311 626.049C666.531 626.049 665.968 625.698 665.968 625.015C665.968 624.276 666.623 624.013 667.422 623.907C667.87 623.847 668.931 623.727 669.13 623.528V624.442C669.13 625.283 668.461 626.049 667.311 626.049ZM672.967 629.659C674.108 629.659 674.828 629.064 675.239 627.946L678.17 619.923L676.679 619.909L674.883 625.412H674.809L673.014 619.909H671.536L674.131 627.092L673.96 627.563C673.609 628.505 673.115 628.583 672.358 628.376L672.026 629.507C672.192 629.581 672.552 629.659 672.967 629.659ZM680.824 619.909H679.471V627H680.824V624.055H683.893V627H685.241V619.909H683.893V622.859H680.824V619.909ZM686.209 621.1H688.531V627H689.879V621.1H692.192V619.909H686.209V621.1ZM695.385 627.157C696.558 627.157 697.218 626.561 697.481 626.031H697.536V627H698.884V622.291C698.884 620.228 697.259 619.817 696.133 619.817C694.85 619.817 693.668 620.334 693.206 621.626L694.503 621.922C694.706 621.419 695.223 620.934 696.151 620.934C697.042 620.934 697.499 621.4 697.499 622.203V622.236C697.499 622.739 696.982 622.73 695.708 622.877C694.365 623.034 692.989 623.385 692.989 624.996C692.989 626.391 694.037 627.157 695.385 627.157ZM695.685 626.049C694.905 626.049 694.342 625.698 694.342 625.015C694.342 624.276 694.997 624.013 695.796 623.907C696.244 623.847 697.305 623.727 697.504 623.528V624.442C697.504 625.283 696.835 626.049 695.685 626.049Z" fill="#EE3465"/>
<path d="M435.879 359H440.941V357.961H437.086V355.512H440.633V354.477H437.086V352.039H440.895V351H435.879V359ZM445.948 355.113H442.401V356.125H445.948V355.113ZM447.505 359H448.673V355.301C448.673 354.492 449.239 353.93 449.903 353.93C450.552 353.93 451.001 354.359 451.001 355.012V359H452.165V355.176C452.165 354.453 452.606 353.93 453.368 353.93C453.985 353.93 454.493 354.273 454.493 355.086V359H455.661V354.977C455.661 353.605 454.896 352.922 453.81 352.922C452.946 352.922 452.298 353.336 452.009 353.977H451.946C451.685 353.32 451.134 352.922 450.333 352.922C449.54 352.922 448.95 353.316 448.7 353.977H448.626V353H447.505V359ZM458.973 359.133C459.965 359.133 460.523 358.629 460.746 358.18H460.793V359H461.934V355.016C461.934 353.27 460.559 352.922 459.605 352.922C458.52 352.922 457.52 353.359 457.129 354.453L458.227 354.703C458.398 354.277 458.836 353.867 459.621 353.867C460.375 353.867 460.762 354.262 460.762 354.941V354.969C460.762 355.395 460.324 355.387 459.246 355.512C458.109 355.645 456.945 355.941 456.945 357.305C456.945 358.484 457.832 359.133 458.973 359.133ZM459.227 358.195C458.566 358.195 458.09 357.898 458.09 357.32C458.09 356.695 458.645 356.473 459.32 356.383C459.699 356.332 460.598 356.23 460.766 356.062V356.836C460.766 357.547 460.199 358.195 459.227 358.195ZM463.489 359H464.657V353H463.489V359ZM464.079 352.074C464.481 352.074 464.817 351.762 464.817 351.379C464.817 350.996 464.481 350.68 464.079 350.68C463.673 350.68 463.341 350.996 463.341 351.379C463.341 351.762 463.673 352.074 464.079 352.074ZM467.396 351H466.229V359H467.396V351Z" fill="white"/>
<path d="M435.879 303V311H436.988L441.055 305.133H441.129V311H442.336V303H441.219L437.148 308.875H437.074V303H435.879ZM447.37 309.555L445.472 305H444.003V311H445.147V306.637L446.937 311H447.804L449.624 306.652V311H450.761V305H449.308L447.37 309.555ZM455.896 311H456.993V305H454.458C453.075 305 452.231 305.715 452.231 306.844C452.231 307.633 452.646 308.215 453.36 308.484L451.958 311H453.153L454.462 308.652H455.896V311ZM455.896 307.707H454.38C453.743 307.707 453.372 307.371 453.376 306.859C453.372 306.344 453.774 305.996 454.458 305.996H455.896V307.707Z" fill="white"/>
<path d="M592.769 595H593.914V591.547H595.982C598.185 591.547 599.177 590.208 599.177 588.537C599.177 586.866 598.185 585.545 595.964 585.545H592.769V595ZM593.914 590.531V586.561H595.927C597.464 586.561 598.051 587.401 598.051 588.537C598.051 589.673 597.464 590.531 595.946 590.531H593.914ZM603.77 595.148C605.211 595.148 606.263 594.428 606.596 593.357L605.543 593.061C605.266 593.8 604.625 594.169 603.77 594.169C602.492 594.169 601.61 593.343 601.559 591.824H606.707V591.362C606.707 588.722 605.137 587.817 603.66 587.817C601.739 587.817 600.465 589.331 600.465 591.51C600.465 593.689 601.721 595.148 603.77 595.148ZM601.559 590.882C601.633 589.779 602.413 588.795 603.66 588.795C604.841 588.795 605.599 589.682 605.599 590.882H601.559ZM607.607 597.031H608.696V595H613.941V597.031H615.03V593.984H613.941V587.909H609.435L609.195 590.716C609.024 592.701 608.77 593.384 608.198 593.984H607.607V597.031ZM609.435 593.984C609.933 593.329 610.114 592.198 610.266 590.716L610.451 588.925H612.851V593.984H609.435ZM618.563 595.166C619.8 595.166 620.446 594.501 620.668 594.04H620.723V595H621.813V590.328C621.813 588.075 620.095 587.817 619.191 587.817C618.12 587.817 616.901 588.186 616.347 589.479L617.381 589.848C617.621 589.331 618.189 588.777 619.228 588.777C620.229 588.777 620.723 589.308 620.723 590.217V590.254C620.723 590.781 620.188 590.734 618.895 590.901C617.58 591.071 616.144 591.362 616.144 592.987C616.144 594.372 617.215 595.166 618.563 595.166ZM618.729 594.188C617.861 594.188 617.233 593.8 617.233 593.043C617.233 592.212 617.99 591.953 618.84 591.842C619.301 591.787 620.539 591.658 620.723 591.436V592.433C620.723 593.32 620.022 594.188 618.729 594.188ZM623.801 595H624.891V592.009H625.87L628.196 595H629.6L626.701 591.325L629.563 587.909H628.159L625.611 590.993H624.891V587.909H623.801V595ZM630.378 588.925H632.723V595H633.812V588.925H636.139V587.909H630.378V588.925ZM638.818 593.393V587.909H637.728V595H639.002L642.4 589.516V595H643.489V587.909H642.234L638.818 593.393ZM645.485 597.659H646.574V593.911H646.667C646.907 594.298 647.368 595.148 648.735 595.148C650.508 595.148 651.745 593.726 651.745 591.473C651.745 589.239 650.508 587.817 648.716 587.817C647.332 587.817 646.907 588.666 646.667 589.036H646.538V587.909H645.485V597.659ZM646.556 591.455C646.556 589.866 647.258 588.795 648.587 588.795C649.972 588.795 650.655 589.959 650.655 591.455C650.655 592.969 649.954 594.169 648.587 594.169C647.276 594.169 646.556 593.061 646.556 591.455ZM656.288 595.148C658.208 595.148 659.501 593.689 659.501 591.491C659.501 589.276 658.208 587.817 656.288 587.817C654.367 587.817 653.074 589.276 653.074 591.491C653.074 593.689 654.367 595.148 656.288 595.148ZM656.288 594.169C654.829 594.169 654.164 592.913 654.164 591.491C654.164 590.07 654.829 588.795 656.288 588.795C657.746 588.795 658.411 590.07 658.411 591.491C658.411 592.913 657.746 594.169 656.288 594.169ZM661.164 595H664.506C665.946 595 666.814 594.188 666.814 593.098C666.814 591.985 665.969 591.385 665.189 591.27C665.988 591.104 666.556 590.656 666.556 589.793C666.556 588.662 665.586 587.909 664.063 587.909H661.164V595ZM662.198 594.003V591.824H664.506C665.254 591.824 665.706 592.272 665.706 593.006C665.706 593.624 665.254 594.003 664.506 594.003H662.198ZM662.198 590.882V588.906H664.063C664.935 588.906 665.466 589.271 665.466 589.866C665.466 590.499 664.935 590.882 664.063 590.882H662.198ZM670.55 595.166C671.787 595.166 672.434 594.501 672.655 594.04H672.711V595H673.8V590.328C673.8 588.075 672.083 587.817 671.178 587.817C670.107 587.817 668.888 588.186 668.334 589.479L669.368 589.848C669.608 589.331 670.176 588.777 671.215 588.777C672.217 588.777 672.711 589.308 672.711 590.217V590.254C672.711 590.781 672.175 590.734 670.883 590.901C669.567 591.071 668.131 591.362 668.131 592.987C668.131 594.372 669.202 595.166 670.55 595.166ZM670.716 594.188C669.848 594.188 669.221 593.8 669.221 593.043C669.221 592.212 669.978 591.953 670.827 591.842C671.289 591.787 672.526 591.658 672.711 591.436V592.433C672.711 593.32 672.009 594.188 670.716 594.188ZM674.824 588.925H677.169V595H678.258V588.925H680.585V587.909H674.824V588.925ZM683.264 590.476V587.909H682.174V595H685.147C686.809 595 687.714 593.984 687.714 592.71C687.714 591.418 686.809 590.476 685.147 590.476H683.264ZM683.264 591.491H685.147C686.011 591.491 686.625 592.018 686.625 592.766C686.625 593.481 686.011 593.984 685.147 593.984H683.264V591.491Z" fill="white"/>
<path d="M748.326 361.25H749.248V358.078H749.326C749.529 358.406 749.92 359.125 751.076 359.125C752.576 359.125 753.623 357.922 753.623 356.016C753.623 354.125 752.576 352.922 751.061 352.922C749.889 352.922 749.529 353.641 749.326 353.953H749.217V353H748.326V361.25ZM749.232 356C749.232 354.656 749.826 353.75 750.951 353.75C752.123 353.75 752.701 354.734 752.701 356C752.701 357.281 752.107 358.297 750.951 358.297C749.842 358.297 749.232 357.359 749.232 356ZM757.467 359.125C759.092 359.125 760.186 357.891 760.186 356.031C760.186 354.156 759.092 352.922 757.467 352.922C755.842 352.922 754.748 354.156 754.748 356.031C754.748 357.891 755.842 359.125 757.467 359.125ZM757.467 358.297C756.232 358.297 755.67 357.234 755.67 356.031C755.67 354.828 756.232 353.75 757.467 353.75C758.701 353.75 759.264 354.828 759.264 356.031C759.264 357.234 758.701 358.297 757.467 358.297ZM764.03 359.125C765.358 359.125 766.233 358.312 766.39 357.25H765.468C765.296 357.906 764.749 358.297 764.03 358.297C762.937 358.297 762.233 357.391 762.233 356C762.233 354.641 762.952 353.75 764.03 353.75C764.843 353.75 765.327 354.25 765.468 354.797H766.39C766.233 353.672 765.28 352.922 764.015 352.922C762.39 352.922 761.312 354.203 761.312 356.031C761.312 357.828 762.343 359.125 764.03 359.125ZM768.659 355.391C768.659 354.344 769.327 353.75 770.237 353.75C771.104 353.75 771.628 354.297 771.628 355.25V359H772.55V355.188C772.55 353.645 771.729 352.922 770.503 352.922C769.558 352.922 769.019 353.316 768.737 353.937H768.659V351H767.737V359H768.659V355.391ZM776.846 353H775.564V351.562H774.643V353H773.736V353.781H774.643V357.531C774.643 358.578 775.486 359.078 776.268 359.078C776.611 359.078 776.83 359.016 776.955 358.969L776.768 358.141C776.689 358.156 776.564 358.187 776.361 358.187C775.955 358.187 775.564 358.062 775.564 357.281V353.781H776.846V353ZM779.998 359.141C781.045 359.141 781.592 358.578 781.779 358.187H781.826V359H782.748V355.047C782.748 353.141 781.295 352.922 780.529 352.922C779.623 352.922 778.592 353.234 778.123 354.328L778.998 354.641C779.201 354.203 779.682 353.734 780.561 353.734C781.408 353.734 781.826 354.184 781.826 354.953V354.984C781.826 355.43 781.373 355.391 780.279 355.531C779.166 355.676 777.951 355.922 777.951 357.297C777.951 358.469 778.857 359.141 779.998 359.141ZM780.139 358.312C779.404 358.312 778.873 357.984 778.873 357.344C778.873 356.641 779.514 356.422 780.232 356.328C780.623 356.281 781.67 356.172 781.826 355.984V356.828C781.826 357.578 781.232 358.312 780.139 358.312ZM789.04 361.109C789.837 361.109 790.853 360.875 791.337 360.672L791.118 359.953C790.837 360.047 789.931 360.359 789.071 360.359C786.399 360.359 784.978 358.859 784.978 356.203C784.978 353.594 786.431 352.031 788.884 352.031C791.368 352.031 792.54 353.781 792.54 355.531C792.54 357.312 792.353 358.109 791.556 358.109C791.087 358.109 790.837 357.719 790.837 357.281V353.75H790.009V354.188H789.962C789.853 353.844 789.243 353.547 788.462 353.625C787.29 353.75 786.399 354.719 786.399 356.125C786.399 357.609 787.103 358.75 788.462 358.797C789.353 358.828 789.821 358.391 790.009 357.937H790.056C790.149 358.609 790.993 358.844 791.54 358.844C793.196 358.844 793.353 357.062 793.353 355.547C793.353 353.406 791.853 351.297 788.931 351.297C785.915 351.297 784.118 353.125 784.118 356.172C784.118 359.328 785.853 361.109 789.04 361.109ZM788.587 358C787.571 358 787.212 357.078 787.212 356.078C787.212 355.172 787.728 354.391 788.618 354.391C789.556 354.391 790.056 354.766 790.056 356.078C790.056 357.375 789.634 358 788.587 358ZM795.326 361.25C796.158 361.25 796.744 360.809 797.092 359.875L799.646 353.016L798.639 353L796.982 357.781H796.92L795.264 353H794.264L796.482 359.031L796.311 359.5C795.975 360.414 795.561 360.5 794.889 360.328L794.654 361.141C794.748 361.188 795.014 361.25 795.326 361.25ZM802.449 359.141C803.496 359.141 804.043 358.578 804.23 358.187H804.277V359H805.199V355.047C805.199 353.141 803.746 352.922 802.98 352.922C802.074 352.922 801.043 353.234 800.574 354.328L801.449 354.641C801.652 354.203 802.133 353.734 803.012 353.734C803.859 353.734 804.277 354.184 804.277 354.953V354.984C804.277 355.43 803.824 355.391 802.73 355.531C801.617 355.676 800.402 355.922 800.402 357.297C800.402 358.469 801.309 359.141 802.449 359.141ZM802.59 358.312C801.855 358.312 801.324 357.984 801.324 357.344C801.324 356.641 801.965 356.422 802.684 356.328C803.074 356.281 804.121 356.172 804.277 355.984V356.828C804.277 357.578 803.684 358.312 802.59 358.312ZM807.804 355.391C807.804 354.344 808.452 353.75 809.335 353.75C810.19 353.75 810.71 354.309 810.71 355.25V359H811.632V355.188C811.632 353.656 810.815 352.922 809.601 352.922C808.694 352.922 808.132 353.328 807.851 353.937H807.772V353H806.882V359H807.804V355.391ZM815.582 359.125C816.738 359.125 817.129 358.406 817.332 358.078H817.441V359H818.332V351H817.41V353.953H817.332C817.129 353.641 816.77 352.922 815.598 352.922C814.082 352.922 813.035 354.125 813.035 356.016C813.035 357.922 814.082 359.125 815.582 359.125ZM815.707 358.297C814.551 358.297 813.957 357.281 813.957 356C813.957 354.734 814.535 353.75 815.707 353.75C816.832 353.75 817.426 354.656 817.426 356C817.426 357.359 816.816 358.297 815.707 358.297ZM822.664 359.125C823.883 359.125 824.773 358.516 825.055 357.609L824.164 357.359C823.93 357.984 823.387 358.297 822.664 358.297C821.582 358.297 820.836 357.598 820.793 356.312H825.148V355.922C825.148 353.687 823.82 352.922 822.57 352.922C820.945 352.922 819.867 354.203 819.867 356.047C819.867 357.891 820.93 359.125 822.664 359.125ZM820.793 355.516C820.855 354.582 821.516 353.75 822.57 353.75C823.57 353.75 824.211 354.5 824.211 355.516H820.793ZM827.077 353H826.015L827.921 356L826.015 359H827.077L828.515 356.672L829.952 359H831.015L829.077 356L831.015 353H829.952L828.515 355.453L827.077 353ZM833.002 359.063C833.389 359.063 833.705 358.746 833.705 358.359C833.705 357.973 833.389 357.656 833.002 357.656C832.615 357.656 832.299 357.973 832.299 358.359C832.299 358.746 832.615 359.063 833.002 359.063ZM835.359 359H836.281V355.203C836.281 354.391 836.922 353.797 837.797 353.797C838.043 353.797 838.297 353.844 838.359 353.859V352.922C838.254 352.914 838.012 352.906 837.875 352.906C837.156 352.906 836.531 353.312 836.313 353.906H836.25V353H835.359V359ZM843.233 356.547C843.233 357.672 842.374 358.187 841.687 358.187C840.921 358.187 840.374 357.625 840.374 356.75V353H839.452V356.812C839.452 358.344 840.265 359.078 841.39 359.078C842.296 359.078 842.89 358.594 843.171 357.984H843.233V359H844.155V353H843.233V356.547Z" fill="white"/>
<path d="M801.346 311H804.236C806.127 311 806.908 310.078 806.908 308.875C806.908 307.609 806.033 306.922 805.299 306.875V306.797C805.986 306.609 806.596 306.156 806.596 305.125C806.596 303.953 805.814 303 804.143 303H801.346V311ZM802.314 310.141V307.359H804.283C805.33 307.359 805.986 308.062 805.986 308.875C805.986 309.578 805.502 310.141 804.236 310.141H802.314ZM802.314 306.516V303.859H804.143C805.205 303.859 805.674 304.422 805.674 305.125C805.674 305.969 804.986 306.516 804.111 306.516H802.314ZM809.297 309.641V305H808.375V311H809.453L812.328 306.359V311H813.25V305H812.188L809.297 309.641ZM814.122 305.859H816.106V311H817.028V305.859H818.997V305H814.122V305.859ZM821.796 311.141C822.843 311.141 823.39 310.578 823.577 310.187H823.624V311H824.546V307.047C824.546 305.141 823.093 304.922 822.327 304.922C821.421 304.922 820.39 305.234 819.921 306.328L820.796 306.641C820.999 306.203 821.479 305.734 822.358 305.734C823.206 305.734 823.624 306.184 823.624 306.953V306.984C823.624 307.43 823.171 307.391 822.077 307.531C820.964 307.676 819.749 307.922 819.749 309.297C819.749 310.469 820.655 311.141 821.796 311.141ZM821.937 310.312C821.202 310.312 820.671 309.984 820.671 309.344C820.671 308.641 821.312 308.422 822.03 308.328C822.421 308.281 823.468 308.172 823.624 307.984V308.828C823.624 309.578 823.03 310.312 821.937 310.312ZM825.697 311H826.01C827.338 311 827.721 309.969 827.807 308L827.9 305.859H830.104V311H831.025V305H827.025L826.916 307.656C826.838 309.672 826.635 310.141 825.916 310.141H825.697V311ZM833.639 309.641V305H832.717V311H833.795L836.67 306.359V311H837.592V305H836.529L833.639 309.641ZM840.202 309.641V305H839.28V311H840.358L843.233 306.359V311H844.155V305H843.093L840.202 309.641ZM842.483 303C842.483 303.406 842.265 303.766 841.718 303.766C841.171 303.766 840.968 303.406 840.968 303H840.108C840.108 303.844 840.733 304.437 841.718 304.437C842.718 304.437 843.343 303.844 843.343 303H842.483Z" fill="white"/>
<path fill-rule="evenodd" clip-rule="evenodd" d="M845 331L435 331L435 330L845 330L845 331Z" fill="#424242"/>
</svg>
